<?xml version="1.0" encoding="utf-8"?>
<svg version="1.1" xmlns:xlink="http://www.w3.org/1999/xlink" width="24px" height="22px" xmlns="http://www.w3.org/2000/svg">
  <g transform="matrix(1 0 0 1 -746 -870 )">
    <path d="M 18.1875 19.89453125  C 18.3701923076923 19.7131076388889  18.4615384615385 19.4982638888889  18.4615384615385 19.25  C 18.4615384615385 19.0017361111111  18.3701923076923 18.7868923611111  18.1875 18.60546875  C 18.0048076923077 18.4240451388889  17.7884615384615 18.3333333333333  17.5384615384615 18.3333333333333  C 17.2884615384615 18.3333333333333  17.0721153846154 18.4240451388889  16.8894230769231 18.60546875  C 16.7067307692308 18.7868923611111  16.6153846153846 19.0017361111111  16.6153846153846 19.25  C 16.6153846153846 19.4982638888889  16.7067307692308 19.7131076388889  16.8894230769231 19.89453125  C 17.0721153846154 20.0759548611111  17.2884615384615 20.1666666666667  17.5384615384615 20.1666666666667  C 17.7884615384615 20.1666666666667  18.0048076923077 20.0759548611111  18.1875 19.89453125  Z M 21.8798076923077 19.89453125  C 22.0625 19.7131076388889  22.1538461538462 19.4982638888889  22.1538461538462 19.25  C 22.1538461538462 19.0017361111111  22.0625 18.7868923611111  21.8798076923077 18.60546875  C 21.6971153846154 18.4240451388889  21.4807692307692 18.3333333333333  21.2307692307692 18.3333333333333  C 20.9807692307692 18.3333333333333  20.7644230769231 18.4240451388889  20.5817307692308 18.60546875  C 20.3990384615385 18.7868923611111  20.3076923076923 19.0017361111111  20.3076923076923 19.25  C 20.3076923076923 19.4982638888889  20.3990384615385 19.7131076388889  20.5817307692308 19.89453125  C 20.7644230769231 20.0759548611111  20.9807692307692 20.1666666666667  21.2307692307692 20.1666666666667  C 21.4807692307692 20.1666666666667  21.6971153846154 20.0759548611111  21.8798076923077 19.89453125  Z M 23.5961538461538 15.0677083333333  C 23.8653846153846 15.3350694444444  24 15.6597222222222  24 16.0416666666667  L 24 20.625  C 24 21.0069444444444  23.8653846153846 21.3315972222222  23.5961538461538 21.5989583333333  C 23.3269230769231 21.8663194444444  23 22  22.6153846153846 22  L 1.38461538461538 22  C 1 22  0.673076923076923 21.8663194444444  0.403846153846154 21.5989583333333  C 0.134615384615385 21.3315972222222  0 21.0069444444444  0 20.625  L 0 16.0416666666667  C 0 15.6597222222222  0.134615384615385 15.3350694444444  0.403846153846154 15.0677083333333  C 0.673076923076923 14.8003472222222  1 14.6666666666667  1.38461538461538 14.6666666666667  L 8.09134615384615 14.6666666666667  L 10.0384615384615 16.6145833333333  C 10.5961538461538 17.1493055555556  11.25 17.4166666666667  12 17.4166666666667  C 12.75 17.4166666666667  13.4038461538462 17.1493055555556  13.9615384615385 16.6145833333333  L 15.9230769230769 14.6666666666667  L 22.6153846153846 14.6666666666667  C 23 14.6666666666667  23.3269230769231 14.8003472222222  23.5961538461538 15.0677083333333  Z M 18.4615384615385 7.33333333333333  C 18.8653846153846 7.33333333333333  19.1490384615385 7.51953125  19.3125 7.89192708333333  C 19.4759615384615 8.28342013888889  19.4086538461538 8.61762152777778  19.1105769230769 8.89453125  L 12.6490384615385 15.3111979166667  C 12.4759615384615 15.4926215277778  12.2596153846154 15.5833333333333  12 15.5833333333333  C 11.7403846153846 15.5833333333333  11.5240384615385 15.4926215277778  11.3509615384615 15.3111979166667  L 4.88942307692308 8.89453125  C 4.59134615384615 8.61762152777778  4.52403846153846 8.28342013888889  4.6875 7.89192708333333  C 4.85096153846154 7.51953125  5.13461538461538 7.33333333333333  5.53846153846154 7.33333333333333  L 9.23076923076923 7.33333333333333  L 9.23076923076923 0.916666666666666  C 9.23076923076923 0.668402777777775  9.32211538461539 0.453559027777775  9.50480769230769 0.272135416666666  C 9.6875 0.0907118055555569  9.90384615384616 0  10.1538461538462 0  L 13.8461538461538 0  C 14.0961538461538 0  14.3125 0.0907118055555569  14.4951923076923 0.272135416666666  C 14.6778846153846 0.453559027777775  14.7692307692308 0.668402777777775  14.7692307692308 0.916666666666666  L 14.7692307692308 7.33333333333333  L 18.4615384615385 7.33333333333333  Z " fill-rule="nonzero" fill="#000000" stroke="none" transform="matrix(1 0 0 1 746 870 )" />
  </g>
</svg>